<svg viewBox="0 0 1024.001 1068.42" xmlns="http://www.w3.org/2000/svg"><path d="M201.077 21.333h621.847c110.998.132 200.944 90.078 201.076 201.064v621.86c-.132 110.998-90.078 200.944-201.064 201.076h-621.86C90.078 1045.2.132 955.255 0 844.27V222.41c.132-111 90.078-200.945 201.064-201.077h.013zm621.848 977.455c85.302-.106 154.425-69.228 154.53-154.52V222.41c-.105-85.302-69.227-154.425-154.52-154.53H201.078c-85.302.105-154.425 69.227-154.53 154.52v621.857c.105 85.302 69.227 154.425 154.52 154.53h.01zM512 288.038c135.473 0 245.296 109.822 245.296 245.295S647.474 778.628 512 778.628c-135.47 0-245.294-109.822-245.294-245.295.16-135.408 109.886-245.136 245.28-245.295H512zm0 444.044c109.767 0 198.75-88.983 198.75-198.75S621.767 334.585 512 334.585c-109.765 0-198.748 88.983-198.748 198.75.132 109.712 89.036 198.616 198.737 198.748h.01zm355.143-487.33c0 36.76-29.8 66.56-66.56 66.56s-66.56-29.8-66.56-66.56c0-36.76 29.8-66.56 66.56-66.56s66.56 29.8 66.56 66.56z"/></svg>