<svg width="258" height="72" viewBox="0 0 258 72" fill="none" xmlns="http://www.w3.org/2000/svg">
<path fill-rule="evenodd" clip-rule="evenodd" d="M29.0327 47.9787C31.6778 44.7812 33.0004 40.8051 33.0004 36.0506C33.0004 31.2459 31.636 27.2531 28.9072 24.0722C26.1616 20.8747 22.6878 19.2759 18.4857 19.2759C14.2502 19.2759 10.8183 20.8579 8.18988 24.022C5.5615 27.1526 4.24731 31.1119 4.24731 35.8999C4.24731 40.7047 5.60336 44.7142 8.31544 47.9285C11.061 51.1261 14.5348 52.7249 18.7369 52.7249C22.9724 52.7249 26.4044 51.1428 29.0327 47.9787ZM25.3162 47.9787C23.709 50.1384 21.7084 51.2182 19.3144 51.2182C16.5019 51.2182 14.1581 49.6361 12.2831 46.472C10.4248 43.3079 9.49569 39.3068 9.49569 34.4686C9.49569 29.6806 10.2909 26.19 11.8813 23.9969C13.455 21.8205 15.3802 20.7324 17.6571 20.7324C20.57 20.7324 22.9808 22.306 24.8893 25.4534C26.7978 28.584 27.752 32.6103 27.752 37.5322C27.752 42.3537 26.9401 45.8359 25.3162 47.9787ZM67.921 26.8094V27.9395L69.3021 28.1404C70.2229 28.2408 70.8758 28.5422 71.2608 29.0444C71.6626 29.5466 71.7463 30.1744 71.512 30.9278L66.4143 46.7232L60.965 30.8273C60.4125 29.17 60.7055 28.2743 61.8439 28.1404L63.1246 27.9395V26.8094H52.3767V27.9395L53.3561 28.0399C54.6284 28.1571 55.5408 28.9774 56.0933 30.5009L50.8951 46.7232L45.4458 30.8273C44.8934 29.17 45.1864 28.2743 46.3248 28.1404L47.6055 27.9395V26.8094H36.8576V27.9395L37.8369 28.0399C39.1428 28.1906 40.0803 29.1197 40.6495 30.8273L48.4342 52.7249H50.3175L56.8969 32.7861L63.9533 52.7249H65.8618L72.9936 30.9278C73.3284 30.007 73.8055 29.3374 74.4249 28.9188C75.0611 28.5003 75.94 28.2073 77.0617 28.0399L77.7397 27.9395V26.8094H67.921ZM104.951 35.1968V49.6864C104.951 50.7076 105.955 51.3437 107.964 51.5949V52.7249C104.398 52.5575 100.833 52.5575 97.2667 52.7249V51.5949C99.2589 51.3605 100.255 50.7243 100.255 49.6864V35.247C100.255 30.8608 98.7985 28.6677 95.8855 28.6677C94.2784 28.6677 92.8805 29.2955 91.6919 30.5511C90.52 31.7732 89.7415 33.0958 89.3565 34.5188V49.6864C89.3565 50.7076 90.3693 51.3437 92.395 51.5949V52.7249C88.8291 52.5407 85.2465 52.5407 81.6471 52.7249V51.5949C83.6728 51.3772 84.6857 50.741 84.6857 49.6864V32.2085C84.6857 30.6516 83.6561 29.9652 81.5969 30.1493V29.0695C84.2922 28.6342 86.5858 27.7386 88.4775 26.3825C88.9798 26.5667 89.323 26.9099 89.5071 27.4121L88.578 32.6605H88.8291C89.3146 31.5723 90.2103 30.3418 91.5161 28.9691C92.2527 28.1822 93.1818 27.5544 94.3035 27.0857C95.4252 26.6169 96.6222 26.3825 97.8945 26.3825C99.9202 26.3825 101.603 27.0522 102.942 28.3915C104.281 29.7308 104.951 31.9992 104.951 35.1968ZM132.463 47.2003H130.957C129.751 49.9124 127.659 51.2684 124.679 51.2684C122.251 51.2684 120.36 50.2137 119.004 48.1043C117.647 45.9949 116.969 43.0903 116.969 39.3905H130.806C131.693 39.3905 132.313 39.1645 132.664 38.7125C133.033 38.2437 133.217 37.4569 133.217 36.3519C133.217 33.1879 132.237 30.6599 130.279 28.7682C128.337 26.8764 125.96 25.9305 123.147 25.9305C120 25.9305 117.321 27.1359 115.111 29.5466C112.918 31.9741 111.822 35.2554 111.822 39.3905C111.822 43.5423 112.935 46.8069 115.161 49.1841C117.405 51.5446 120.217 52.7249 123.599 52.7249C127.901 52.6914 130.856 50.8499 132.463 47.2003ZM128.546 38.0596H116.969C116.969 34.728 117.514 32.0913 118.602 30.1493C119.707 28.1906 121.238 27.2112 123.197 27.2112C126.763 27.2112 128.546 30.8273 128.546 38.0596ZM151.94 26.3825C153.229 26.3825 154.259 26.6839 155.029 27.2866C155.816 27.8725 156.209 28.6342 156.209 29.5717C156.209 30.2414 155.992 30.8022 155.556 31.2542C155.138 31.6895 154.585 31.9071 153.899 31.9071C153.146 31.9071 152.367 31.4886 151.564 30.6516C150.793 29.7978 150.04 29.3708 149.303 29.3708C148.065 29.3708 147.043 30.007 146.24 31.2794C145.42 32.5852 144.951 33.6985 144.834 34.6192V49.6864C144.834 50.6741 145.964 51.3103 148.224 51.5949V52.7249C144.457 52.524 140.74 52.524 137.074 52.7249V51.5949C139.133 51.3772 140.163 50.741 140.163 49.6864V32.2085C140.163 30.6516 139.133 29.9652 137.074 30.1493V29.0695C139.686 28.6342 141.996 27.7386 144.005 26.3825C144.49 26.5834 144.834 26.9266 145.034 27.4121L143.854 33.1376H144.13C145.821 28.6342 148.425 26.3825 151.94 26.3825ZM194.309 47.9787C196.954 44.7812 198.277 40.8051 198.277 36.0506C198.277 31.2459 196.912 27.2531 194.183 24.0722C191.438 20.8747 187.964 19.2759 183.762 19.2759C179.526 19.2759 176.095 20.8579 173.466 24.022C170.838 27.1526 169.524 31.1119 169.524 35.8999C169.524 40.7047 170.88 44.7142 173.592 47.9285C176.337 51.1261 179.811 52.7249 184.013 52.7249C188.249 52.7249 191.681 51.1428 194.309 47.9787ZM190.592 47.9787C188.985 50.1384 186.985 51.2182 184.591 51.2182C181.778 51.2182 179.434 49.6361 177.559 46.472C175.701 43.3079 174.772 39.3068 174.772 34.4686C174.772 29.6806 175.567 26.19 177.158 23.9969C178.731 21.8205 180.657 20.7324 182.933 20.7324C185.846 20.7324 188.257 22.306 190.166 25.4534C192.074 28.584 193.028 32.6103 193.028 37.5322C193.028 42.3537 192.216 45.8359 190.592 47.9787ZM225.488 35.1968V49.6864C225.488 50.7076 226.492 51.3437 228.501 51.5949V52.7249C224.935 52.5575 221.37 52.5575 217.804 52.7249V51.5949C219.796 51.3605 220.792 50.7243 220.792 49.6864V35.247C220.792 30.8608 219.335 28.6677 216.423 28.6677C214.815 28.6677 213.417 29.2955 212.229 30.5511C211.057 31.7732 210.278 33.0958 209.893 34.5188V49.6864C209.893 50.7076 210.906 51.3437 212.932 51.5949V52.7249C209.366 52.5407 205.783 52.5407 202.184 52.7249V51.5949C204.21 51.3772 205.223 50.741 205.223 49.6864V32.2085C205.223 30.6516 204.193 29.9652 202.134 30.1493V29.0695C204.829 28.6342 207.123 27.7386 209.014 26.3825C209.517 26.5667 209.86 26.9099 210.044 27.4121L209.115 32.6605H209.366C209.852 31.5723 210.747 30.3418 212.053 28.9691C212.79 28.1822 213.719 27.5544 214.84 27.0857C215.962 26.6169 217.159 26.3825 218.431 26.3825C220.457 26.3825 222.14 27.0522 223.479 28.3915C224.818 29.7308 225.488 31.9992 225.488 35.1968ZM253 47.2003H251.494C250.288 49.9124 248.196 51.2684 245.216 51.2684C242.788 51.2684 240.897 50.2137 239.54 48.1043C238.184 45.9949 237.506 43.0903 237.506 39.3905H251.343C252.23 39.3905 252.85 39.1645 253.201 38.7125C253.57 38.2437 253.754 37.4569 253.754 36.3519C253.754 33.1879 252.774 30.6599 250.816 28.7682C248.874 26.8764 246.496 25.9305 243.684 25.9305C240.537 25.9305 237.858 27.1359 235.648 29.5466C233.455 31.9741 232.358 35.2554 232.358 39.3905C232.358 43.5423 233.472 46.8069 235.698 49.1841C237.942 51.5446 240.754 52.7249 244.136 52.7249C248.438 52.6914 251.393 50.8499 253 47.2003ZM249.083 38.0596H237.506C237.506 34.728 238.051 32.0913 239.139 30.1493C240.244 28.1906 241.775 27.2112 243.734 27.2112C247.3 27.2112 249.083 30.8273 249.083 38.0596Z" fill="#0D1724"/>
</svg>
