<svg height="24" viewBox="0 0 24 24" width="24" xmlns="http://www.w3.org/2000/svg"><path d="m23 11.9972c0 3.0716707-.2919486 4.9599365-.9752519 6.1309724-.6899772 1.2495878-1.4977504 1.6426573-3.1464492 1.7581268-1.1634296.0679422-4.0836609.1137008-6.8756322.1137008-2.7982495 0-5.71990956-.0457438-6.89406156-.1144573-1.63367363-.1147396-2.44159251-.5071627-3.13069332-1.7431687-.6851171-1.1943656-.97791182-3.090332-.97791182-6.133974 0-3.06102635.29138368-4.94749572.97193166-6.14580053.69817831-1.25213438 1.51918461-1.64934112 3.13907305-1.74410777 1.12044035-.07598532 3.88560383-.1184917 6.89166199-.1184917 2.9995963 0 5.7635413.04252223 6.8756322.11790083 1.6290018.0951308 2.4498278.4914622 3.1419141 1.74012887.6905882 1.20245484.979787 3.07975153.979787 6.1391703zm-2.716671-5.14756353c-.3229966-.5845863-.5119593-.67617445-1.530916-.73572309-1.0597869-.07179201-3.797676-.11391338-6.7497463-.11391338-2.95842339 0-5.6975892.04210674-6.7655716.1144916-1.00865298.05903487-1.20034918.1517784-1.52219855.72893005-.46735895.82296544-.71489655 2.42556752-.71489655 5.15377835 0 2.7298394.24886149 4.34132.71873501 5.1605995.3169161.568367.50727457.6608281 1.51829525.7319051 1.11171228.0649943 4.00509799.1102954 6.76563644.1102954 2.7543316 0 5.6462597-.0453151 6.7474269-.1095536 1.0236701-.0717366 1.2113154-.1630464 1.5354221-.7494511.4667203-.800233.7144843-2.4027219.7144843-5.1325953 0-2.75068604-.2464551-4.34440489-.716671-5.15876353zm-10.283329 2.15036353 5 3-5 3z" fill-rule="evenodd"/></svg>